<?xml version="1.0" encoding="utf-8"?>
<!-- Generator: Adobe Illustrator 25.2.3, SVG Export Plug-In . SVG Version: 6.00 Build 0)  -->
<svg version="1.1" xmlns="http://www.w3.org/2000/svg" xmlns:xlink="http://www.w3.org/1999/xlink" x="0px" y="0px"
	 viewBox="0 0 690.8 217.5" style="enable-background:new 0 0 690.8 217.5;" xml:space="preserve">
<style type="text/css">
	.st0{fill-rule:evenodd;clip-rule:evenodd;fill:#FFFFFF;}
	.st1{fill:#E5AEBC;}
	.st2{fill:#ED697C;}
	.st3{fill:#BCD24C;}
	.st4{fill:#F0EEA2;}
	.st5{fill:#FCD17E;}
	.st6{fill:#FBC863;}
	.st7{fill:#FFDE9B;}
	.st8{fill:#FFFFFF;}
</style>
<g id="Capa_1">
</g>
<g id="Capa_3">
</g>
<g id="Capa_4">
	<path class="st0" d="M5.5,190.7c1.3,0.5,2.3,1.2,3.7,1.7c0.4,0.1,0.8,0.1,1.1,0.3c0.6,0.3,1.2,0.5,1.8,0.8c0.8,0.4,1.7,0.7,2.5,1
		c0.2,0.1,0.4,0.2,0.6,0.2c1,0.4,1.9,0.8,2.9,1.1c0.5,0.2,1,0.4,1.6,0.6c0.3,0.1,0.6,0.2,0.9,0.3c0.8,0.3,1.5,0.5,2.3,0.8
		c5.1,1.8,10.6,3.3,16.3,4.7c0.2,0.1,0.5,0.1,0.8,0.2c3.1,0.7,6.2,1.4,9.5,2c3.3,0.6,6.7,1.2,10.1,1.8c0.3,0.1,0.6,0.1,1,0.1
		c0.2,0,0.5,0.1,0.7,0.1c0.4,0.1,0.7,0.1,1.1,0.2c6.6,0.9,13.3,1.6,20.2,2c1.4,0.1,2.8,0.2,4.1,0.2c9.4,0.5,18.8,0.6,28.3,0.2
		c5.1-0.2,10.3-0.5,15.4-0.9c0.9-0.1,1.9-0.1,2.8-0.2c0.6,0,1.3-0.2,1.9,0c0.1,0.2-0.2,0.3-0.4,0.4c-0.2,0.1-0.5,0.1-0.7,0.1
		c-1.3,0.1-2.6,0.3-3.9,0.4c-0.6,0.1-1.3,0.1-1.9,0.2c-0.5,0-0.9,0.1-1.4,0.1c-6.9,0.6-13.8,1-20.7,1.2c-4.1,0-8.2,0.1-12.2,0
		c-0.2,0-0.4,0-0.6,0c-0.3,0-0.6,0-0.9,0c-3.1-0.1-6.2-0.2-9.3-0.4c-1.3-0.1-2.6-0.2-3.9-0.3c-0.6-0.1-1.2-0.1-1.9-0.1
		c-3.8-0.3-7.5-0.7-11.2-1.1c-2-0.2-3.9-0.5-5.9-0.8c-2.4-0.4-4.8-0.7-7.1-1.2c-2.2-0.4-4.5-0.8-6.6-1.3c-0.3-0.1-0.5-0.1-0.8-0.2
		c-0.1,0-0.3-0.1-0.4-0.1c-0.3-0.1-0.6-0.1-0.9-0.2c-2.9-0.6-5.7-1.3-8.4-2c-2.3-0.7-4.8-1.3-7-2c-4.3-1.3-8.2-2.7-12.1-4.3
		c-0.7-0.3-1.4-0.6-2.2-0.9c-0.8-0.4-1.6-0.7-2.4-1.1c-0.5-0.2-0.7-0.4-1.2-0.6c-1.7-0.8-3.3-1.6-4.9-2.5c-0.4-0.2-0.8-0.4-0.9-0.7
		C5.2,190.8,5.3,190.8,5.5,190.7z"/>
	<path class="st0" d="M203.6,105.3c-1.5-0.8-3-1.5-4.6-2.3c-0.5-0.1-0.7-0.4-1.1-0.5c-0.8-0.3-1.6-0.6-2.3-1
		c-0.7-0.3-1.4-0.5-2.1-0.9c-3.6-1.4-7.4-2.7-11.4-3.9c-2.1-0.7-4.4-1.2-6.6-1.8c-2.6-0.6-5.2-1.3-8-1.8c-0.3-0.1-0.6-0.1-0.9-0.2
		c-0.1,0-0.2-0.1-0.4-0.1c-0.3,0-0.5-0.1-0.7-0.2c-2-0.4-4.2-0.7-6.2-1.1c-2.2-0.4-4.5-0.7-6.7-1c-1.9-0.2-3.7-0.5-5.5-0.7
		c-3.5-0.4-7-0.7-10.6-1c-0.6,0-1.2,0-1.8-0.1c-1.1-0.1-2.2-0.1-3.3-0.2c0.2,0.4,0.3,0.8,0.4,1.2c6.4,0.4,12.6,1,18.8,1.8
		c0.4,0,0.7,0.1,1,0.2c0.2,0,0.4,0.1,0.7,0.1c0.3,0,0.6,0,0.9,0.1c3.2,0.5,6.4,1,9.5,1.6c3.1,0.5,6,1.2,8.9,1.8
		c0.3,0,0.5,0.1,0.8,0.2c5.4,1.3,10.6,2.7,15.4,4.3c0.7,0.2,1.5,0.5,2.2,0.7c0.3,0.1,0.5,0.2,0.8,0.3c0.5,0.2,1,0.4,1.5,0.6
		c1,0.3,1.8,0.7,2.8,1.1c0.2,0.1,0.4,0.1,0.6,0.2c0.8,0.3,1.6,0.6,2.4,1c0.6,0.2,1.1,0.5,1.7,0.7c0.3,0.1,0.7,0.2,1.1,0.3
		c1.3,0.5,2.3,1.1,3.5,1.6c0.2,0,0.2-0.1,0.2-0.2C204.3,105.7,203.9,105.5,203.6,105.3z"/>
	<path class="st0" d="M30.7,190.9c-0.3-0.2-0.6-0.3-1.1-0.4c-1.2-0.2-2.1-0.5-2.6-1.1c-2.2-1.1-4.6-2.1-6.7-3.2
		c-1-0.6-2.1-1.2-3.1-1.8c-0.1-0.1-0.4-0.1,0-0.2c2,1,4.1,1.9,6.1,2.9c1.3,0.6,3.1,1.1,4.3,1.7c0.5,0,0.8,0.1,1.2,0.3
		c3.9,1.5,8,2.9,12.3,4.1c1.3,0.4,2.7,0.7,4.1,1.1c0.8,0.2,1.5,0.4,2.3,0.6c0.7,0.1,1.2,0.3,1.9,0.5c0.6,0.2,1.2,0.3,1.8,0.4
		c0.1,0,0.2,0,0.3,0.1c0.4,0.1,0.9,0.2,1.4,0.3c1.4,0.3,2.9,0.6,4.3,0.9c0.3,0.1,0.7,0.1,1,0.2c2.3,0.5,4.7,0.9,7.1,1.3
		c0.7,0.2,1.5,0.3,2.3,0.4c0.1,0,0.2,0,0.3,0c0.4,0.1,0.7,0.1,1.1,0.2c3.2,0.5,6.5,0.8,9.7,1.2c1.9,0.2,3.8,0.4,5.7,0.5
		c1.2,0.1,2.4,0.2,3.5,0.2c1.1,0.1,2.2,0.2,3.4,0.2c0.4,0,0.8,0,1.2,0c1.2,0.1,2.5,0.1,3.8,0.2c2.8,0.1,5.6,0.1,8.4,0.1
		c1.7,0,3.5,0.1,5.2-0.1c0.3,0,0.7,0,1,0c0.8,0.1,1.6,0,2.4,0c2.3-0.1,4.7-0.2,7-0.3c0.2,0,0.4,0,0.7,0c1,0,1.9-0.1,2.9-0.2
		c2.6-0.2,5.2-0.4,7.8-0.6c0.2,0,0.3,0,0.5-0.1c0.6,0,1.3-0.1,1.9-0.2c1.4-0.2,2.9-0.3,4.3-0.5c0.6-0.1,1.1-0.2,1.7,0
		c0.1,0.2-0.2,0.3-0.5,0.4c-1.3,0.2-2.7,0.4-4.1,0.7c-3.3,0.4-6.5,0.8-9.8,1.1c-0.5,0-0.9,0.1-1.4,0.1c-0.5,0-1,0.1-1.5,0.1
		c-1.6,0.1-3.2,0.3-4.8,0.3c-5.7,0.4-11.5,0.5-17.2,0.5c-1.3,0-2.6,0-4,0c-3.5-0.1-7.1-0.2-10.5-0.4c-0.5,0-1-0.1-1.5-0.1
		c-0.7-0.1-1.4-0.1-2.1-0.2c-2-0.2-4-0.3-6-0.5c-0.6-0.1-1.3-0.2-1.9-0.2c-0.6-0.1-1.2-0.1-1.8-0.2c-0.3,0-0.5-0.1-0.8-0.1
		C68,200.3,64,199.7,60,199c-1.6-0.3-3.2-0.6-4.8-0.9c-5.1-1.1-9.9-2.3-14.6-3.6c-1.8-0.6-3.6-1.2-5.4-1.8c-1.2-0.3-2.1-0.8-3.2-1.2
		C31.5,191.3,30.9,191.2,30.7,190.9z"/>
	<path class="st0" d="M36.8,179c0.3,0,0.3,0.1,0.4,0.1c1.5,0.5,2.6,1,3.6,1.7c0.8,0.4,1.8,0.8,2.7,1.1c1,0,1.4,0.4,2.1,0.6
		c0.5,0.2,0.9,0.4,1.4,0.5c3,1,6.1,2,9.3,2.9c0.3,0.1,0.5,0.1,0.8,0.2c0.6,0.2,1.2,0.3,1.7,0.5c3.9,1,8.1,1.8,12.3,2.6
		c0.4,0.1,0.8,0.1,1.1,0.2c3.6,0.6,7.4,1.1,11.1,1.5c0.2,0,0.3,0,0.5,0.1c1.9,0.2,3.8,0.4,5.7,0.5c2,0.2,4.1,0.3,6.2,0.4
		c0.4,0,0.8,0.1,1.2,0.1c0.4,0,0.8,0,1.2,0c2,0.1,4.1,0.1,6.1,0.1c1.5,0,2.9,0,4.4,0c0.4,0,0.8,0,1.3,0c0.9,0,1.8-0.1,2.7-0.1
		c0.5,0,1,0,1.4,0c0.5,0,1.1,0,1.6-0.1c1.1-0.1,2.1-0.1,3.2-0.2c2.4-0.1,4.9-0.3,7.3-0.5c1.3-0.1,2.6-0.3,3.9-0.3
		c1.2-0.1,2.4-0.3,3.6-0.4c0.2,0.1,0,0.2-0.1,0.2c-0.4,0.2-1,0.3-1.6,0.3c-2.2,0.3-4.4,0.6-6.7,0.9c-1.2,0.2-2.4,0.3-3.5,0.4
		c-0.5,0-0.9,0.1-1.4,0.1c-0.6,0.1-1.1,0.1-1.7,0.2c-3.8,0.3-7.6,0.5-11.4,0.6c-0.7,0-1.3,0-2,0c-6.5,0.1-12.9-0.1-19.2-0.6
		c-3.4-0.3-6.7-0.7-10.1-1.1c-2-0.3-4-0.6-6-0.9c-3.1-0.6-6.1-1.2-9.1-1.9c-1-0.2-1.8-0.5-2.8-0.7c-0.9-0.3-1.8-0.5-2.7-0.7
		c-2.1-0.6-4.1-1.2-6-1.9c-1-0.4-1.9-0.7-2.9-1.1c-0.4-0.2-0.9-0.3-1.3-0.5c-1.6-0.7-3.2-1.4-4.7-2.1c-0.2-0.1-0.4-0.2-0.7-0.3
		c-0.1-0.1-0.2-0.1-0.3-0.2c-0.5-0.3-1.1-0.5-1.5-0.8c-0.6-0.3-1.3-0.7-1.7-1C36.5,179.2,36.3,179.1,36.8,179z"/>
	<path class="st0" d="M183.6,108.8c-0.5-0.4-1.1-0.6-1.6-1c-0.3-0.3-0.9-0.5-1.4-0.7c-0.1-0.1-0.2-0.1-0.3-0.2
		c-0.3-0.1-0.4-0.2-0.6-0.3c-1.4-0.7-2.9-1.3-4.5-1.9c-0.4-0.2-0.8-0.3-1.2-0.4c-0.9-0.3-1.8-0.6-2.7-1c-1.9-0.6-3.7-1.2-5.7-1.7
		c-0.9-0.2-1.8-0.4-2.6-0.7c-0.9-0.2-1.7-0.4-2.6-0.6c-2.8-0.6-5.6-1.2-8.6-1.7c-1.8-0.3-3.8-0.5-5.6-0.8c-2.4-0.2-4.7-0.5-7-0.7
		c0.1,0.1,0.2,0.1,0.2,0.1c0.6,0.4,1,0.8,1.4,1.3c3.1,0.3,6.1,0.6,9.1,1.1c0.4,0,0.8,0.1,1.1,0.2c4,0.7,7.9,1.4,11.6,2.3
		c0.5,0.2,1.1,0.3,1.6,0.4c0.3,0.1,0.5,0.1,0.8,0.2c3.1,0.8,6,1.7,8.8,2.6c0.5,0.1,0.9,0.3,1.3,0.5c0.7,0.2,1.1,0.6,2,0.6
		c0.9,0.3,1.9,0.6,2.6,1c0.9,0.6,2,1.1,3.4,1.6c0.1,0,0.2,0.1,0.4,0.1C183.9,109.1,183.7,108.9,183.6,108.8z"/>
	<path class="st0" d="M76.6,182.3c-4.1-0.9-8-1.9-11.4-3.2c-0.3-0.1-0.7-0.2-0.8-0.5c0.3-0.1,0.6,0,0.8,0c2,0.5,4.2,0.9,6.2,1.4
		c0.2,0,0.4,0.1,0.4,0.2c2.1,0.5,4.2,0.9,6.5,1.2c0.3,0,0.7,0.1,1,0.1c0.7,0.2,1.6,0.1,2,0.4c0.6,0.1,1.1,0.2,1.7,0.2
		c0.6-0.1,1,0,1.4,0.2c0.2,0,0.5,0.1,0.7,0.1c1.1-0.1,2,0.1,3,0.3c0.5,0.1,0.9,0.1,1.4,0.1c0.5,0.1,1.1,0.1,1.5,0.3
		c4.8,0.5,9.8,0.8,14.9,1c0.3,0,0.7,0,1,0c0.1,0.1,0.2,0.1-0.1,0.1c-0.3,0-0.6,0.1-0.9,0.1c-0.6,0.1-1.3,0.2-1.9,0.1
		c-0.4,0-0.9,0-1.3,0c-0.3,0.1-0.6,0.1-0.9,0.1c-4.4,0-8.7-0.2-13-0.5c-2.8-0.3-5.7-0.6-8.4-1.1c-0.9-0.1-1.8-0.3-2.6-0.5
		c-0.2,0-0.5-0.1-0.7-0.1C77,182.5,76.7,182.4,76.6,182.3z"/>
</g>
<g id="Capa_2">
	<ellipse class="st1" cx="121.1" cy="161.6" rx="71.6" ry="12.8"/>
	<ellipse class="st2" cx="92.2" cy="167.6" rx="4.8" ry="2.4"/>
	<path class="st2" d="M79.6,166c-1-0.2-2.2-0.2-2.7-0.1c-0.5,0-2.2,0.2-1.8,1.1c0.7,1.6,2.9,2.9,4.5,2c0.5-0.3,2.2-0.9,2.1-1.6
		C81.7,166.6,80.7,166.2,79.6,166z"/>
	<path class="st2" d="M178.3,161.2c0,0-11.2,3.7-12.3,4.3c-1,0.6-1.8,3.8,2,3.9c3.8,0.1,11.4-1.6,12.4-2.6s0.6-2.4,1.7-4.2
		C183.3,160.8,180.9,160.3,178.3,161.2z"/>
	<path class="st3" d="M110.2,95.1c-12.1,2.6-21.1,13.5-27.1,24.4c-2.2,3.9-3.4,7.8-2.6,11c2.8,10,23.4,25.2,57.1,5.7
		c36.2-20.9,9.3-36.7-2.1-39.6C130.2,95.2,118.7,93.3,110.2,95.1z"/>
	<path class="st2" d="M103.9,125c3-0.6,5.9,1.2,8.8,3c5.1,3.1,11,5.6,15.6,0.4c2.8-3.2,2.8-8,5.8-11.2c2.9-3.2,5.6,1.3,7.2,3.4
		c1.8,2.4,4.2,4.9,7.5,3.9c4.9-1.5,6.6-6.6,6.5-11.1c0-0.5,0.6-0.8,1-0.4c0.4,0.4,0.8,0.8,1,1.2c0.7,1.4,1.1,2.9,1.6,4.4
		c2,6.7,4.7,13.5,13,13.1c6.5-0.3,16.2,1.5,19.5,8c2.6,5.1-0.6,10.8-4.9,13.7c-4.7,3.2-10.9,4.2-16.4,5.3c-6,1.2-10.6,5.2-16.2,7.4
		c-6,2.4-12.5,3.1-19,3.4c-8,0.4-16.1,0.4-24.1-0.1c-3.2-0.2-11.6,0-13.1-3.7c-1.4-3.6,5.2-3.9,6.5-5.9c1.7-2.7-1.9-4.6-4.2-5.1
		c-12.3-2.7-23.3,7.3-35.5,5.1c-6.1-1.1-9-7.1-4.6-12c3.7-4,10.3-4.5,15.1-6.7c2.3-1,5.1-5.4,5.5-8.7c0-0.3,0.5-0.4,0.6-0.1
		c1.1,2.3,2.9,4.5,5.5,5.2c4.6,1.3,7.5-3.8,10-6.7C98.8,128.6,100.8,125.6,103.9,125z"/>
	<path class="st4" d="M152.6,107.9c0.4,1.7,0.4,2.6-0.2,4.3c-0.5,1.8-2.2,3.2-3.4,3.9c-0.5,0.2-0.9,0.5-1.4,0.6
		c-0.5,0.2-1.1,0.3-1.6,0.4c-1.2,0.1-2.3-0.1-3.3-0.6c-2-0.9-3.3-2.3-4.6-3.7c-0.6-0.6-1.3-1.3-2-1.7c-0.7-0.5-1.4-0.7-1.9-0.4
		c-0.6,0.2-1.1,0.9-1.6,1.5c-0.5,0.7-0.8,1.4-1.1,2.3c-0.6,1.6-1.1,3.4-2.1,5.1c-1,1.7-2.5,3.3-4.6,4.2c-2.1,0.9-4.5,0.9-6.6,0.5
		c-2.1-0.4-4-1.2-5.9-2c-1.8-0.8-3.5-1.7-5.3-2.2c-1.8-0.5-3.6-0.5-5.1,0.4c-1.6,0.8-2.7,2.3-4,3.7c-1.3,1.4-2.4,2.8-3.8,4.2
		c-0.7,0.7-1.5,1.3-2.4,1.8c-0.9,0.5-2,0.8-3,0.9c-2.2,0-4.1-1-5.3-2.4c1.4,1.3,3.3,2.1,5.3,1.9c2-0.2,3.5-1.4,4.7-2.8
		c1.2-1.3,2.3-2.9,3.4-4.3c1.1-1.4,2.3-3,4.2-4.2c0.9-0.6,2-1,3.2-1.1c1.2-0.1,2.3,0,3.3,0.3c2.1,0.5,3.9,1.4,5.7,2.2
		c1.8,0.7,3.6,1.4,5.4,1.8c1.8,0.3,3.7,0.3,5.3-0.4c1.6-0.7,2.9-1.9,3.7-3.3c0.8-1.4,1.3-3.1,2-4.9c0.4-0.9,0.8-1.7,1.4-2.6
		c0.3-0.4,0.6-0.8,1-1.2c0.4-0.4,0.9-0.8,1.6-1c0.7-0.2,1.5-0.2,2.1-0.1c0.6,0.2,1.1,0.5,1.6,0.8c0.9,0.6,1.6,1.3,2.2,2
		c1.2,1.4,2.5,2.7,4,3.5c0.8,0.4,1.6,0.6,2.5,0.6c0.4,0,0.9-0.1,1.3-0.3c0.5-0.1,0.9-0.3,1.3-0.5c1.7-0.8,2.7-1.6,3.4-3.2
		C152.5,110.5,152.8,109.7,152.6,107.9z"/>
	<path class="st1" d="M92.2,145.1c1.6-0.6,3.4-0.8,5.2-0.7c1.8,0.1,3.5,0.7,5.2,1.3c3.3,1.4,6.2,3.1,9.3,4.4c3.1,1.2,6.2,2,9.5,2
		c3.2,0.1,6.5-0.6,9.7-1.4c6.5-1.7,12.6-4.4,18.1-8.4c5.4-3.9,10.1-9,13.3-15.1c-1.9,6.7-6.3,12.6-11.7,17.1
		c-5.4,4.6-11.9,7.7-18.8,9.5c-1.7,0.5-3.4,0.8-5.2,1.1c-1.8,0.3-3.6,0.4-5.4,0.3c-3.6-0.2-7.3-1.1-10.4-2.7
		c-1.6-0.8-3.1-1.7-4.6-2.6c-1.5-0.9-2.9-1.8-4.4-2.6c-1.5-0.8-3-1.5-4.6-1.9C95.6,144.9,93.9,144.9,92.2,145.1z"/>
	<path class="st5" d="M132.5,93.5c-2-3.3-48.2-95.7-64.3-88.8c-16,7.1,14.2,106.5,15.3,110.2L132.5,93.5z"/>
	<path class="st6" d="M78.8,102.5c-0.2-0.4,0.1-1,0.5-1.2l46.4-20.2c0.5-0.2,1.1,0,1.2,0.4l6.4,12c0.2,0.4-0.1,1-0.5,1.2l-48.4,21.1
		c-0.5,0.2-1.1,0-1.2-0.4L78.8,102.5z"/>
	<path class="st6" d="M93.5,95.2c0,0-25.7-65.1-23.3-79.1c-3.6,15.4,10.7,75.5,13.4,83.4C89.2,98.1,93.5,95.2,93.5,95.2z"/>
	<path class="st7" d="M79.5,106.9c-0.2-0.4,0.1-1,0.5-1.2l48.4-21.1c0.5-0.2,1.1,0,1.2,0.4l4.8,11.1c0.2,0.4-0.1,1-0.5,1.2
		l-48.4,21.1c-0.5,0.2-1.1,0-1.2-0.4L79.5,106.9z"/>
	<path class="st5" d="M129.4,99.4c2.1-0.9,2.6-2.1,2-3.5c-0.6-1.5-3.7-8.5-4.1-9.5c-0.4-1-2.6,0-4.2,0.7s-6.1,2.7-6.1,2.7
		s6.5-3.4,8.2,0.1c1.7,3.5,3.6,8,3.6,8s0.2,1.7-3.5,3.1C126.5,100.6,126.5,100.6,129.4,99.4z"/>
	<g>
		<g>
			<path class="st8" d="M448,33.5c2.8-0.7,6.5-1.1,11-1.1c10.8,0,18.9,2.6,24.1,7.7c3.4,3.4,5,7.2,5,11.4c0,2.1-0.5,4.2-1.6,6.2
				c-2.2,4.3-5.7,6.5-10.4,6.5c-4.6,0-7.9-2.1-9.9-6.3c-0.8-1.7-1.7-3.6-2.5-5.7c-1.2-2.9-3-5.2-5.4-6.9c-2.5-1.6-5.2-2.4-8.1-2.4
				c-4.6,0-8.2,1.9-10.7,5.8c-0.8,1.4-1.3,2.5-1.5,3.3c-0.2,0.8-0.2,2.8-0.2,5.8c0,6.1,1.8,13.5,5.5,22.2c3.3,7.6,6.7,13,10.2,16.2
				c3.5,3.2,8.2,5.2,14,5.9c2.3,0.2,3.7,0.3,4.3,0.3c3.4,0,5.6-1.1,6.8-3.3c0.6-1.2,0.9-2.5,0.9-4.1c0-1.2-0.3-4-0.8-8.5
				c0-0.1,0-0.3-0.1-0.6c-0.1-0.3-0.1-0.6-0.1-0.8c0-4.8,2.4-7.3,7.3-7.3h1.1c1.9,0.1,3.6,0.8,5,2.2c2,2,3,4,3,6
				c0,3.6-3.3,9.5-9.9,17.7c-4.2,5.2-8.5,8.9-12.8,11.1c-4.3,2.3-9.3,3.4-14.8,3.4c-8.7,0-16.1-2.4-22.2-7.3
				c-6-4.8-10.3-11.8-12.7-20.8c-0.9-3.4-1.4-8.5-1.4-15.3c0-6,0.4-10.5,1.1-13.4c1.7-7.3,4.7-13.3,9.2-18.1
				C435.6,38.5,441.2,35.2,448,33.5z"/>
			<path class="st8" d="M502.1,38.8c2-0.8,3.9-1.3,5.8-1.3c3,0,5.9,0.8,8.4,2.4c2.6,1.6,4.2,3.6,4.8,6c0.2,1.1,0.3,2.1,0.3,3
				c0,2.6-0.5,7.9-1.6,15.8c-0.6,5.6-0.9,10.6-0.9,15c0,6.2,0.5,10.7,1.6,13.4c0.8,2.3,2.4,4.6,4.7,6.9c2.3,2.3,4.4,3.8,6.4,4.6
				c1.9,0.6,3.6,0.9,5.2,0.9c2.8,0,5.5-1.4,7.9-4.1c1.8-2,3.4-3,4.7-3h0.3c3.5,0,5.2,2.5,5.2,7.4c0,4-1.4,6.7-4.3,8
				c-1.1,0.5-2.7,0.8-4.8,0.9c-2.2,0.1-8.4,0.2-18.7,0.2c-11.9,0-19.2-0.2-21.9-0.6c-2.7-0.4-4.8-1.4-6.3-3.2
				c-0.9-1.2-1.4-2.4-1.4-3.8c0-1.3,0.4-3,1.3-5.2c2.5-6.1,3.8-15.1,3.8-27.1c0-4-0.1-6.9-0.3-8.8c-0.3-3.7-0.7-6.1-1.1-7.2
				c-0.4-1.1-1.8-3.2-4.3-6.2c-1.2-1.6-1.7-3.2-1.7-4.7C495.1,44.1,497.4,41,502.1,38.8z"/>
			<path class="st8" d="M605.4,35c1.9-0.9,4-1.4,6.5-1.4c1.6,0,3,0.3,4.3,0.8c3.9,1.9,5.8,5,5.8,9.3c0,2.3-0.7,4.5-2.2,6.6
				c-3.2,4.3-5,7.7-5.5,10.2c-0.5,2.5-0.9,8.5-1.1,18.2c-0.1,8.3-0.4,13.8-0.9,16.3c-0.5,2.6-1.7,5.2-3.6,7.8
				c-2.3,3.1-5.6,5.5-9.9,7.3c-4.3,1.8-9,2.7-14.2,2.7c-1.2,0-3-0.1-5.5-0.3c-12.9-1.6-20.8-7.3-23.7-17c-0.5-2.1-0.8-4.3-0.8-6.5
				c0-2,0.1-3.7,0.2-5c0.1-1.3,0.2-3.2,0.2-5.7c0-12.2-1.7-21.7-5.2-28.6c-1.3-2.5-1.9-4.6-1.9-6.3c0-2.4,1.4-4.3,4.1-5.5
				c1.5-0.6,5.3-0.9,11.5-0.9c6.3,0,10.3,0.3,11.8,0.9c3.4,1.4,5,3.3,5,5.7c0,1.4-0.5,3.2-1.4,5.4c-3.2,7.3-4.7,16.1-4.7,26.7
				c0,8.3,1,14.4,3.2,18.3c2.1,3.9,5.4,5.8,9.9,5.8h1.1c2.3-0.1,4.2-0.7,5.5-1.7c1.4-1.1,2.6-2.8,3.8-5.4c2.3-4.6,3.5-11.5,3.5-20.5
				c0-5.4-0.3-10.5-0.8-15.3c-0.4-5.7-0.6-9.1-0.6-10.3c0-3.5,0.4-6,1.3-7.6C601.8,37.3,603.2,36,605.4,35z"/>
			<path class="st8" d="M621.3,38.3c1.4-0.5,2.7-0.8,3.9-0.8c2,0,4,0.5,6,1.4c2,0.9,3.8,1.4,5.5,1.4c0.9,0,2.8-0.3,5.7-0.8
				c2.9-0.6,6.6-0.9,11-0.9c4.7,0,8.5,0.4,11.4,1.1c7.9,2.1,13.3,5.8,16.3,11c1.5,2.6,2.2,5.7,2.2,9.2c0,5.5-1.8,10-5.4,13.6
				l-2.1,2.2l3.2,3.3c2.5,2.4,4.2,4.6,5,6.5c0.8,1.9,1.2,4.9,1.2,8.8c0,4-0.5,7.2-1.6,9.5c-2.8,6.1-8.1,10.1-15.8,12
				c-3.2,0.8-11.3,1.3-24.3,1.3c-13.3,0-20.6-0.4-21.9-1.1c-2.9-1.5-4.4-3.9-4.4-7.4c0-2,0.4-3.7,1.2-5.2c0.8-1.5,2.2-3.3,4.3-5.4
				c1.9-1.8,3.1-3.5,3.7-5.1c0.6-1.6,0.9-4.3,0.9-8.1c0-2.7-0.1-4.9-0.2-6.6c-0.1-6.3-0.6-10.7-1.6-13.1c-1.7-4.5-4.1-8.3-7.1-11.4
				c-1.8-1.7-2.8-3.2-3-4.4c-0.1-0.3-0.2-0.8-0.2-1.4c0-1.9,0.6-3.8,1.7-5.6C618.2,40.3,619.7,39,621.3,38.3z M659.4,83.4
				c-1.6-1.3-3.3-1.9-5.2-2.1h-1.4c-1.3,0-2.4,0.5-3.5,1.4c-2.8,2.4-4.3,6.2-4.3,11.2c0,5.7,0.8,9.4,2.5,11c0.7,0.7,2.2,1.1,4.3,1.1
				c2.5,0,4.7-0.5,6.6-1.4c3.8-1.8,5.7-5.3,5.7-10.6C664.1,89.5,662.5,85.9,659.4,83.4z M654,48.5c-1.3-0.3-2.3-0.5-3.2-0.5
				c-2.2,0-3.7,1.1-4.5,3.4c-0.8,2.3-1.2,6.2-1.2,11.9c0,4.6,0.4,7.3,1.1,7.9c0.8,0.6,2,0.9,3.5,0.9c3.5,0,6.4-1,8.7-3.2
				c2.3-2.1,3.5-5.3,3.5-9.5c0-1.9-0.3-3.5-0.9-4.9c-0.5-1.3-1.5-2.5-2.8-3.7C656.7,49.8,655.4,49,654,48.5z"/>
		</g>
	</g>
	<g>
		<g>
			<path class="st8" d="M250.6,37c2.6-0.9,4.4-1.4,5.4-1.4c1.2,0,2.4,0.4,3.6,1.3c1.3,0.9,2.1,1.9,2.5,3.1c0.3,0.8,0.5,1.7,0.5,2.5
				c0,2.2-1.2,4.6-3.6,7.1c-1.7,1.9-2.8,3.5-3.3,4.9c-0.5,1.4-1,3.8-1.4,7.3c-0.6,5.6-0.9,10.8-0.9,15.6c0,10.9,1.5,19.8,4.4,26.7
				c1.2,2.6,1.7,4.8,1.7,6.6c0,2.7-1.4,4.8-4.1,6.3c-1.3,0.6-5.2,0.9-11.7,0.9c-6.6,0-10.6-0.3-12-0.9c-2.8-1.2-4.3-3.2-4.3-6.2
				c0-2,0.6-4.4,1.9-7.3c2.2-4.8,3.5-12.1,3.9-21.8c0.1-1.3,0.2-3.1,0.2-5.5c0-8.9-0.8-16.8-2.4-23.7c-0.6-2.5-0.9-4.2-0.9-5
				c0-0.8,0.2-1.7,0.5-2.7c0.6-2.5,1.7-4.2,3.3-5.1c1.6-0.9,4.2-1.3,7.9-1.3C245.2,38.5,248.1,38,250.6,37z"/>
			<path class="st8" d="M289.5,35.6c2.8-0.7,6.5-1.1,11-1.1c10.8,0,18.9,2.6,24.1,7.7c3.4,3.4,5,7.2,5,11.4c0,2.1-0.5,4.2-1.6,6.2
				c-2.2,4.3-5.7,6.5-10.4,6.5c-4.6,0-7.9-2.1-9.9-6.3c-0.8-1.7-1.7-3.6-2.5-5.7c-1.2-2.9-3-5.2-5.4-6.9c-2.5-1.6-5.2-2.4-8.1-2.4
				c-4.6,0-8.2,1.9-10.7,5.8c-0.8,1.4-1.3,2.5-1.5,3.3c-0.2,0.8-0.2,2.8-0.2,5.8c0,6.1,1.8,13.5,5.5,22.2c3.3,7.6,6.7,13,10.2,16.2
				c3.5,3.2,8.2,5.2,14,5.9c2.3,0.2,3.7,0.3,4.3,0.3c3.4,0,5.6-1.1,6.8-3.3c0.6-1.2,0.9-2.5,0.9-4.1c0-1.2-0.3-4-0.8-8.5
				c0-0.1,0-0.3-0.1-0.6c-0.1-0.3-0.1-0.6-0.1-0.8c0-4.8,2.4-7.3,7.3-7.3h1.1c1.9,0.1,3.6,0.8,5,2.2c2,2,3,4,3,6
				c0,3.6-3.3,9.5-9.9,17.7c-4.2,5.2-8.5,8.9-12.8,11.1c-4.3,2.3-9.3,3.4-14.8,3.4c-8.7,0-16.1-2.4-22.2-7.3
				c-6-4.8-10.3-11.8-12.7-20.8c-0.9-3.4-1.4-8.5-1.4-15.3c0-6,0.4-10.5,1.1-13.4c1.7-7.3,4.7-13.3,9.1-18.1
				C277.2,40.6,282.7,37.3,289.5,35.6z"/>
			<path class="st8" d="M382.5,31.4c0.9-0.6,2.4-0.9,4.3-0.9c2.4,0,4.3,0.8,5.8,2.3c1.4,1.5,2.1,3.6,2.1,6.2c0,2.8-0.9,5.3-2.8,7.4
				c-1.8,2.1-4.3,3.5-7.3,4.1c-0.7,0.2-1.8,0.3-3.2,0.3c-1.6,0-3.8-0.2-6.6-0.6l-6.5-0.9l-2.7,1.4c-2.1,1.2-3.6,2.7-4.4,4.5
				c-0.8,1.8-1.4,5-1.6,9.5c0,0.6,0,1.4-0.1,2.3c-0.1,0.9-0.1,1.5-0.1,1.8c0,1.9,0.3,3.1,0.8,3.5c0.5,0.4,1.7,0.6,3.5,0.6h0.5
				c3.6,0,6.8-1.1,9.8-3.2c1.7-1.3,3.4-1.9,5.2-1.9c2.2,0,4,1.2,5.4,3.5c0.6,1.2,0.9,2.3,0.9,3.3c0,3.1-2,5.4-6,6.9
				c-2.6,1.1-6.3,1.6-11,1.7c-4.9,0.2-7.7,0.5-8.2,0.8c-0.4,0.4-0.6,1.6-0.6,3.6c0,1.7,0.1,3.2,0.2,4.6c0.4,7.8,1.3,12.6,2.7,14.4
				c0.8,0.9,2.6,1.4,5.4,1.4c2.5,0,4.4-0.3,5.8-0.9c1.3-0.6,2.4-1.8,3.4-3.6c1.7-3.1,4.2-4.6,7.4-4.6c1.1,0,2.5,0.4,4.4,1.1
				c2.6,1.3,3.9,3.5,3.9,6.6c0,4.1-1.9,7.5-5.7,10.1l-2.4,1.7h-21.6c-10.5,0-16.9-0.1-19-0.2c-2.2-0.1-3.7-0.4-4.5-0.9
				c-1.3-0.7-2.2-1.8-2.8-3.2c-0.4-1.1-0.6-1.9-0.6-2.7c0-1.3,0.8-4.3,2.4-9c2-5.5,3-13.7,3-24.6c0-11-1-19.3-3-24.8
				c-0.9-2.7-1.5-5-1.7-6.9v-1.6c0-0.9,0.6-2,1.7-3.2c2.3-2,6.3-3,11.8-3c0.4,0,1,0,1.7,0.1c0.7,0.1,1.3,0.1,1.7,0.1
				c8.2,0.6,13.4,0.9,15.6,0.9s3.9-0.3,5.2-0.9c1.1-0.5,2.5-1.8,4.4-3.8C381,32.8,382.1,31.7,382.5,31.4z"/>
		</g>
	</g>
	<g>
		<path class="st8" d="M227.5,142.4c0-3,1.6-4,4-4h11.3c8.1,0,10.3,4.4,10.3,8.3c0,3.2-1.9,6.4-5.1,7.2v0.1c3.5,0.5,4.1,3,4.1,6.1
			c0,3.4,0.9,4.7,0.9,6.1c0,1.6-1.6,2.7-3.2,2.7c-3.7,0-4-3.6-4-4.8c0-5.2-1-7.3-4.7-7.3h-6.7v8.8c0,2-1.3,3.4-3.4,3.4
			s-3.4-1.4-3.4-3.4V142.4z M234.3,151.7h6.8c2.6,0,5.1-0.7,5.1-4c0-3.2-2-4-4.9-4h-7V151.7z"/>
		<path class="st8" d="M299.9,142.4c0-3,1.6-4,4-4h16c2,0,3.4,0.6,3.4,2.7c0,2.2-1.5,2.7-3.4,2.7h-13.2v6.5h11.5
			c1.8,0,3.2,0.5,3.2,2.6s-1.4,2.6-3.2,2.6h-11.5v7.2h13.5c2,0,3.4,0.6,3.4,2.7c0,2.2-1.5,2.7-3.4,2.7h-16.3c-2.4,0-4-1-4-4V142.4z"
			/>
		<path class="st8" d="M383.3,137.7c7.8,0,12.1,4.9,12.1,7.8c0,1.9-1,3.1-3.1,3.1c-3.9,0-2.8-5.4-9-5.4c-4.3,0-7.8,3.7-7.8,10.2
			c0,5.4,2.2,10.2,8.1,10.2c5.4,0,5.2-5.7,8.5-5.7c1.7,0,3.3,1,3.3,2.6c0,4.3-5.2,8.6-11.8,8.6c-9.3,0-14.9-5.4-14.9-15.6
			C368.7,144.9,373.7,137.7,383.3,137.7z"/>
		<path class="st8" d="M454.9,137.7c9.8,0,15.1,6.5,15.1,15.3c0,8.4-4.9,16-15.1,16c-10.7,0-15.1-7-15.1-16
			C439.8,144.2,445.1,137.7,454.9,137.7z M454.9,163.5c6.2,0,8.3-4.8,8.3-10.5c0-5.7-2.7-9.8-8.3-9.8c-5.6,0-8.3,4.1-8.3,9.8
			C446.6,158.7,448.5,163.5,454.9,163.5z"/>
		<path class="st8" d="M516.5,142.4c0-3,1.6-4,4-4h11.3c8.1,0,10.3,4.4,10.3,8.3c0,3.2-1.9,6.4-5.1,7.2v0.1c3.5,0.5,4.1,3,4.1,6.1
			c0,3.4,0.9,4.7,0.9,6.1c0,1.6-1.6,2.7-3.2,2.7c-3.7,0-4-3.6-4-4.8c0-5.2-1-7.3-4.7-7.3h-6.7v8.8c0,2-1.3,3.4-3.4,3.4
			s-3.4-1.4-3.4-3.4V142.4z M523.3,151.7h6.8c2.6,0,5.1-0.7,5.1-4c0-3.2-2-4-4.9-4h-7V151.7z"/>
		<path class="st8" d="M588.8,142.4c0-3,1.6-4,4-4h8.3c7.4,0,14.2,3.2,14.2,14.9c0,9.5-5.3,14.9-14.4,14.9h-8.2c-2.4,0-4-1-4-4
			V142.4z M595.6,162.8h5.7c5.4,0,7.2-4.9,7.2-9.5c0-5.9-2.2-9.5-7.2-9.5h-5.7V162.8z"/>
		<path class="st8" d="M677.4,151c6.2,1.4,7.8,5.1,7.8,8.6c0,5.4-4.1,9.4-12.3,9.4c-8.6,0-12.5-4.3-12.5-7.6c0-1.7,1.2-2.8,2.9-2.8
			c3.7,0,2.7,5.4,9.6,5.4c3.5,0,5.5-2,5.5-3.9c0-1.2-0.6-2.5-2.9-3.1l-7.7-2c-6.2-1.6-7.3-5-7.3-8.2c0-6.6,6.1-9.1,11.9-9.1
			c5.3,0,11.6,3,11.6,7c0,1.7-1.5,2.7-3.1,2.7c-3.2,0-2.6-4.4-8.9-4.4c-3.2,0-4.9,1.5-4.9,3.5c0,2.1,2.5,2.7,4.6,3.2L677.4,151z"/>
	</g>
</g>
</svg>
